<svg version="1.1" xmlns="http://www.w3.org/2000/svg" xmlns:xlink="http://www.w3.org/1999/xlink" width="457.74474" height="457.74474" viewBox="0,0,457.74474,457.74474"><g transform="translate(-13.12763,252.90841)"><g data-paper-data="{&quot;isPaintingLayer&quot;:true}" fill-rule="nonzero" stroke-miterlimit="10" stroke-dasharray="" stroke-dashoffset="0" style="mix-blend-mode: normal"><path d="M13.12763,204.83633v-457.74474h457.74474v457.74474z" fill="none" stroke="none" stroke-width="0" stroke-linecap="butt" stroke-linejoin="miter"></path><g><path d="M242.63579,194.23001c0,-1.25019 0.35068,-3.0461 2.2906,-3.45148c2.79876,-0.58712 6.00096,2.2469 6.8719,3.08073c-0.0644,0.33181 1.02465,7.0269 1.02465,7.60669c0,1.96301 -0.52446,2.04078 -0.72802,2.07303c-1.91629,0.27895 -7.02323,-5.09119 -9.36734,-8.21562c-0.03225,-0.16957 -0.09179,-0.547 -0.09179,-1.09336v0z" fill="#ffc93e" stroke="#603813" stroke-width="1.32684" stroke-linecap="butt" stroke-linejoin="miter"></path><path d="M234.87593,203.61127c-1.38926,-1.50716 -1.58741,-5.59193 -1.58741,-7.32948c0,-0.73718 0.03765,-1.22766 0.03948,-1.24286l0.00247,-0.03765c0,0 -0.00431,-0.15748 -0.00431,-0.21519c0,-3.27275 3.01267,-4.40806 3.52321,-4.57882c1.74424,0.02125 4.75929,0.84656 5.47888,2.09126c0.07292,0.12587 0.14099,0.28381 0.14099,0.48626c0,0.17745 -0.05286,0.39255 -0.20356,0.65208c-0.0699,0.11909 -1.30855,3.0461 -2.35629,5.29053l-0.74872,2.0755c-0.56037,1.8135 -1.44221,3.62828 -2.40191,3.62828c-0.75843,0.00119 -1.37414,-0.26741 -1.88285,-0.8199v0z" fill="#ffc93e" stroke="#603813" stroke-width="1.32684" stroke-linecap="butt" stroke-linejoin="miter"></path><path d="M274.16793,179.88938l-1.35463,-2.39027c-1.48352,-2.58357 -3.19744,-4.94901 -4.70891,-7.03111c-1.94304,-2.68205 -3.63378,-5.45708 -4.19351,-7.4177c-0.20182,-0.70622 -0.10453,-1.38019 0.18597,-1.75276c0.02794,-0.10031 0.32091,-0.26008 0.52749,-0.30268c2.48939,-0.53784 12.79389,5.37802 15.36473,8.53964c3.76625,4.63168 5.27221,11.12798 4.43234,14.40008c-0.34463,1.33713 -1.11525,2.28455 -2.2317,2.73555c-2.85153,1.15226 -4.72769,-0.92745 -8.02178,-6.78074v0z" fill="#ffc93e" stroke="#603813" stroke-width="1.32684" stroke-linecap="butt" stroke-linejoin="miter"></path><path d="M233.60512,134.23603c3.65815,-1.98802 -0.11726,-9.47369 -3.76991,-16.71386c-1.99644,-3.95899 -5.55666,-10.64547 -4.39954,-11.27208c2.23838,-1.21309 12.93186,11.40638 17.267,16.49262l4.41896,5.03284c0,0 3.15915,3.87627 5.57672,6.4319c0.0426,0.04498 2.32834,-0.30991 3.90732,-1.62213c1.2872,-1.07385 1.11699,-2.27539 1.52667,-4.80244c0.37615,-2.32166 0.78463,-6.52305 2.03052,-6.5443c1.87671,-0.02858 3.11051,7.70691 3.59118,10.57246l0.26558,1.53281c0.63027,3.40833 3.91823,13.65566 4.05921,14.09017c0.04498,0.10581 0.11918,0.24313 0.11918,0.24313l0.0273,0.05533l0.03765,0.04617c5.07727,6.29695 8.85377,13.93214 8.85377,21.08546c0,15.1477 -13.27823,25.81076 -31.05137,25.81076c-3.29647,0 -6.52066,-0.46189 -9.58308,-1.36984l-0.16471,-0.04745c0,0 -4.80739,-0.40418 -10.95722,7.67962c-1.2338,1.62268 -1.12377,3.13542 -2.86252,2.66986c-0.5798,-0.155 -1.00587,-0.58099 -1.35353,-1.35472c-0.83136,-1.8451 -0.21757,-6.2167 0.79865,-9.00997l0.15977,-0.43881l-0.36708,-0.29049c-0.08996,-0.07173 -10.06439,-7.33984 -11.07209,-17.755c-0.87817,-9.07858 3.70798,-14.24755 5.6108,-17.08817l1.09336,-1.82092c1.38019,-3.3584 -1.21731,-8.02782 -3.50974,-12.14841c-1.36874,-2.46017 -3.5779,-6.05016 -3.0789,-6.8937c0.55369,-0.93478 2.53254,0.05955 4.53082,1.01311c1.6203,0.77428 3.17912,1.86819 4.26158,1.14686c1.12551,-0.74936 0.38714,-2.63221 -0.63577,-5.23703c-0.96199,-2.44689 -2.78346,-6.31216 -2.08393,-7.90754c0.19265,-0.43881 0.53051,-0.74689 1.03317,-0.94202c1.85848,-0.71959 4.51561,2.41098 6.66651,4.8596c2.62305,2.98958 5.59862,6.3772 9.05366,4.49619v0z" fill="#ffc93e" stroke="#603813" stroke-width="1.32684" stroke-linecap="round" stroke-linejoin="round"></path><g stroke="none" stroke-width="0.66342" stroke-linecap="butt" stroke-linejoin="miter"><path d="M236.67248,169.97322v0v0c0,-2.73362 2.21585,-4.95075 4.94956,-4.95195c2.73307,0 4.94892,2.21832 4.94892,4.95195c0,2.73188 -2.21521,4.94718 -4.94892,4.94718c-2.73307,0 -4.94956,-2.2153 -4.94956,-4.94718z" fill="#ffffff"></path><path d="M242.28877,166.35593c0.9608,0 1.83173,0.39016 2.462,1.02099c0.63082,0.63027 1.02099,1.5012 1.02099,2.462c0,0.96089 -0.39016,1.83182 -1.02099,2.462c-0.63027,0.63091 -1.5012,1.02108 -2.462,1.02108c-0.96089,0 -1.83182,-0.39016 -2.462,-1.02108c-0.63091,-0.63018 -1.02108,-1.50111 -1.02108,-2.462c0,-0.9608 0.39016,-1.83173 1.02108,-2.462c0.63018,-0.63082 1.50111,-1.02099 2.462,-1.02099z" fill="#603813"></path></g><g stroke="none" stroke-width="0.66342" stroke-linecap="butt" stroke-linejoin="miter"><path d="M260.51593,169.97322v0v0c0,-2.73362 2.21594,-4.95075 4.95075,-4.95195c2.73307,0 4.94901,2.21832 4.94901,4.95195c0,2.73188 -2.21713,4.94718 -4.94901,4.94718c-2.73482,0 -4.95075,-2.2153 -4.95075,-4.94718z" fill="#ffffff"></path><path d="M262.64859,169.83892v0v0c0,-1.92288 1.55828,-3.48299 3.48244,-3.48299c1.92288,0 3.48299,1.56066 3.48299,3.48299c0,1.9248 -1.56011,3.48189 -3.48299,3.48189c-1.92416,0 -3.48244,-1.55892 -3.48244,-3.48189z" fill="#603813"></path></g><path d="M202.49723,189.08046c-1.01439,-0.64786 -1.59904,-1.71749 -1.69322,-3.09713c-0.22912,-3.37361 2.44075,-9.4834 6.98851,-13.34749c3.10565,-2.6389 14.31873,-6.56986 16.66714,-5.58707c0.19385,0.08144 0.45402,0.29049 0.46189,0.39621c0.2194,0.41756 0.19018,1.09702 -0.13741,1.75459c-0.90794,1.82568 -3.07762,4.24637 -5.47952,6.52488c-1.867,1.77704 -3.98263,3.78383 -5.9122,6.05501l-1.7698,2.09676c-4.3072,5.15504 -6.53459,6.86035 -9.12539,5.20424v0z" fill="#ffc93e" stroke="#603813" stroke-width="1.32684" stroke-linecap="butt" stroke-linejoin="miter"></path><path d="M251.49204,182.10651v0v0l8.41863,-0.40537l-0.08758,0.72197c-0.03399,0.27529 -0.78949,4.81224 -4.49436,4.81224c-0.80708,0 -1.50899,-0.29178 -2.08576,-0.87524c-1.69624,-1.71081 -1.75826,-3.51643 -1.75459,-3.67326z" fill="#603813" stroke="none" stroke-width="0.66342" stroke-linecap="butt" stroke-linejoin="miter"></path></g><path d="M13.12763,204.83633v-457.74474h457.74474v457.74474z" fill="none" stroke="none" stroke-width="0" stroke-linecap="butt" stroke-linejoin="miter"></path></g></g></svg>