<svg version="1.1" xmlns="http://www.w3.org/2000/svg" xmlns:xlink="http://www.w3.org/1999/xlink" width="457.74474" height="459.43658" viewBox="0,0,457.74474,459.43658"><g transform="translate(-13.12763,252.90841)"><g data-paper-data="{&quot;isPaintingLayer&quot;:true}" fill-rule="nonzero" stroke-miterlimit="10" stroke-dasharray="" stroke-dashoffset="0" style="mix-blend-mode: normal"><path d="M13.12763,204.83633v-457.74474h457.74474v457.74474z" fill="none" stroke="none" stroke-width="0" stroke-linecap="butt" stroke-linejoin="miter"></path><g stroke-width="0.9025"><path d="M248.90421,196.71025c0.93355,-0.29685 2.08032,0 2.08032,0c0,0 0.50776,3.36812 0.66317,4.58599c0.156,1.22029 0.7339,3.12843 0.7339,3.12843c0,0 0.29197,0.19081 0.21047,0.68904c-0.08419,0.49712 -1.08734,0.5937 -2.34473,0.85459c-1.25464,0.25796 -2.28153,0.03648 -2.47903,-0.45353c-0.19917,-0.48759 0.17214,-0.71553 0.17214,-0.71553c0,0 0.58496,-4.02126 0.05232,-5.40521c0.00377,0.00352 -0.27953,-2.30627 0.91143,-2.68378z" fill="#be1e2d" stroke="#231f20" stroke-linecap="round" stroke-linejoin="round"></path><path d="M244.87803,197.08776v0c1.68312,0.84278 1.86226,2.5318 1.86387,2.53415c-0.334,1.45175 0.73336,4.82633 0.73336,4.82633c0,0 0.39876,0.15962 0.27415,0.67494c-0.12736,0.5165 -1.10845,0.90869 -2.38736,0.86516c-1.2773,-0.04594 -2.28159,0.02767 -2.43538,-0.45118c-0.15379,-0.47878 0.10846,-0.71553 0.10846,-0.71553c0,0 0.02972,-1.15255 0.00975,-2.38458c-0.02105,-1.22792 -0.20563,-4.60074 -0.20563,-4.60074c0,0 0.93576,-1.30101 2.03877,-0.74855z" fill="#be1e2d" stroke="#231f20" stroke-linecap="round" stroke-linejoin="round"></path><g><path d="M251.37146,192.38979v0c0.24874,1.83278 -0.15056,5.20853 -2.07494,6.39351c-1.90382,1.16958 -3.92202,1.01238 -6.01472,-0.54534c-1.73388,-1.29213 -1.69233,-4.98536 -1.51097,-7.05253v0c0,0 0.01184,-4.78039 3.69863,-5.36932c3.68571,-0.58893 5.39741,3.07897 5.68233,5.36697c0.08957,0.404 0.16569,0.81452 0.21968,1.20671z" fill="#be1e2d" stroke="#000000" stroke-linecap="butt" stroke-linejoin="miter"></path><path d="M250.35527,197.64191v0l-0.00969,0.09305c-0.28222,0.42638 -0.63028,0.78803 -1.04853,1.04657c-1.76348,1.08364 -3.62472,1.02941 -5.55281,-0.22324l-0.01997,-0.09423c0,0 -1.02097,-6.08015 2.53087,-6.35162c4.03377,-0.30566 4.12555,4.51238 4.10014,5.52946z" fill="#e6e7e8" stroke="#231f20" stroke-linecap="round" stroke-linejoin="round"></path></g><g><g stroke="#000000" stroke-linecap="round" stroke-linejoin="round"><path d="M272.85856,173.44965l-0.32055,1.01238c-1.77807,5.11672 -4.30571,8.06139 -4.30571,8.06139c0,0 0.09065,-0.91345 0.04209,-2.38112l-0.07881,-0.03002c-0.22775,0.7727 -0.6017,1.76915 -1.22391,3.00008c-1.36257,2.70434 -5.36554,4.96996 -5.36554,4.96996c0,0 0.24874,-0.92931 0.40468,-2.44997l-0.05609,-0.23257c-0.4344,0.36334 -0.88446,0.69961 -1.33883,1.02471c-0.13382,0.09658 -0.26769,0.19081 -0.40366,0.28269c-0.41389,0.28093 -0.83537,0.54887 -1.26546,0.79801c-0.16993,0.09775 -0.34698,0.18846 -0.51859,0.28269c-0.31403,0.17136 -0.63243,0.33333 -0.95567,0.49001c-0.2369,0.11368 -0.47649,0.2267 -0.71985,0.33098c-0.25203,0.11133 -0.51105,0.21025 -0.76846,0.31388c-0.47326,0.18494 -0.95406,0.35747 -1.44514,0.5165c-0.16025,0.05181 -0.32055,0.10363 -0.48349,0.15198c-0.35021,0.10598 -0.70317,0.20843 -1.06253,0.29913l0.00108,0.00117c-1.80402,0.45764 -3.71812,0.75795 -5.76705,0.89518c-2.21683,0.14846 -4.22696,0.12431 -6.10381,-0.01821v0c-1.48508,-0.1125 -2.87516,-0.3069 -4.19132,-0.57073c-0.06368,-0.01175 -0.1279,-0.02532 -0.19212,-0.03648c-0.40689,-0.08542 -0.80733,-0.17378 -1.20017,-0.27036c-0.13705,-0.03589 -0.26817,-0.07243 -0.40474,-0.1095c-0.52182,-0.13488 -1.02904,-0.28269 -1.52933,-0.44172c-0.31619,-0.1001 -0.63028,-0.20262 -0.93732,-0.31153c-0.18237,-0.06186 -0.36534,-0.12901 -0.54394,-0.1944c-0.48785,-0.1837 -0.97134,-0.37157 -1.4403,-0.57301l-0.0815,0.08601c0.17705,1.38277 0.61414,2.12662 0.96327,2.48233c0.71178,0.72382 2.08188,0.89518 2.08188,0.89518c0,0 -4.18809,0.63957 -6.46855,-2.88816c-0.24228,-0.37627 -0.48678,-0.765 -0.71883,-1.17787l-0.09979,-0.23675c-0.49539,-0.18076 -0.99723,-0.42103 -1.49262,-0.73028c-3.02087,-1.89927 -3.40026,-3.46587 -3.40026,-3.46587l0.06314,0.57425c0.29089,1.49645 0.57473,2.44109 0.57473,2.44109c0,0 -3.61558,-2.49708 -5.22581,-6.23918c-1.29841,-3.02063 -1.40143,-4.85041 -1.4101,-5.15783l-0.12138,-1.09839c-0.07827,-4.30454 0.1667,-9.13087 0.70849,-13.87882l0.03348,-0.12666c0.48295,-3.67136 0.01459,-9.75276 4.47731,-15.97484c8.36381,-11.65797 16.90784,-11.25273 22.01759,-19.86827c3.7586,-6.33811 2.79318,-13.60736 2.79318,-13.60736c0,0 2.30479,3.56128 3.22483,5.6526c0.88984,2.03833 1.84127,4.66554 1.84127,4.66554l0.03073,-0.02238c0.02105,-0.07655 0.03994,-0.15485 0.05615,-0.23322c0.25089,-1.21963 0.15164,-3.02298 0.15164,-3.02298c0,0 2.19734,7.02832 5.74493,11.63617c3.54484,4.60485 8.66918,5.92171 15.1394,21.694c0.80512,1.95996 1.55361,3.60957 1.95404,5.43764l0.18129,1.05238c0.56337,3.28864 0.3416,12.37474 -0.84398,16.30053zM231.41416,158.00253c0,0 -4.19079,4.75089 -3.91448,11.36171c0.24443,5.84928 1.63343,7.65615 2.38192,8.10961c0.76954,0.46116 1.96265,0.18728 1.96265,0.18728c0,0 -3.37485,1.95056 -6.12593,-0.69608c-1.84014,-1.76922 -3.84273,-4.05128 -4.40341,-10.48839M266.28801,168.53679c0,0 0.52074,1.62781 -0.74849,5.02653c-1.42786,3.83046 -4.44066,5.01655 -4.44066,5.01655c0,0 2.50336,-5.90168 0.40259,-11.44948c-0.91687,-2.42465 -3.7467,-4.22969 -6.70066,-5.50538c-4.00298,-1.72909 -8.23316,-2.48233 -8.23316,-2.48233M268.21394,180.04748c-0.2256,0.78216 -0.60439,1.80335 -1.24495,3.06664c-1.36203,2.70434 -5.36554,4.97002 -5.36554,4.97002c0,0 0.72362,-2.7121 0.47703,-6.44474M222.16864,171.22057c-0.4112,0.83273 -0.72744,1.72556 -0.90443,2.66727c-1.11168,5.87871 0.84452,12.35523 0.84452,12.35523c0,0 -3.6145,-2.49591 -5.22581,-6.23912c-1.4284,-3.32342 -1.4101,-5.20383 -1.4101,-5.20383M272.53586,174.46679c-1.77915,5.11665 -4.30571,8.06132 -4.30571,8.06132c0,0 0.52182,-5.18974 -1.58386,-10.73864c-0.09549,-0.25091 -0.20234,-0.49471 -0.31625,-0.73145M246.56815,159.14268c0,0 0.71662,0.20732 2.60752,1.84987c1.89084,1.64249 2.58647,3.43461 2.58647,3.43461c0,0 -5.58361,-1.60601 -8.67462,-2.81801c-3.08778,-1.21441 -13.50758,-4.31159 -13.50758,-4.31159M228.88814,183.57345c1.51366,2.59484 3.08832,4.00652 3.08832,4.00652c0,0 -3.70353,1.25148 -7.10588,-0.88572c-3.02087,-1.89934 -3.40026,-3.46594 -3.40026,-3.46594M261.95097,185.40329c-3.99114,3.35043 -8.83385,4.99358 -14.72282,5.38877c-7.02229,0.47291 -12.15422,-0.64786 -16.54143,-2.52599M230.56205,187.92335c0.1328,1.65959 0.62167,2.52005 1.00536,2.90872c0.71232,0.72382 2.08248,0.89577 2.08248,0.89577c0,0 -4.18923,0.63957 -6.46915,-2.88927c-0.24228,-0.37516 -0.48678,-0.76389 -0.71877,-1.17787M246.97343,159.33937c0,0 15.29426,2.03598 15.29426,11.14623" fill="#be1e2d"></path><path d="M265.26482,174.42379c-0.57037,6.55189 -7.47176,13.38764 -17.57155,14.03191c-8.91636,0.57543 -22.09311,-3.80155 -24.00506,-11.85935c-0.18996,-0.80976 -0.29083,-1.59192 -0.3184,-2.3434l0.19373,0.15433c0.67674,1.08129 1.42732,1.86103 2.15423,2.55836c2.75103,2.64547 6.12593,0.69491 6.12593,0.69491c0,0 -1.19311,0.27505 -1.96265,-0.18611c-0.74849,-0.45346 -2.13749,-2.25916 -2.38192,-8.10961c-0.2763,-6.61199 3.91448,-11.36171 3.91448,-11.36171l0.01459,-0.15198c3.13633,0.94817 9.38472,2.86225 11.65824,3.75685c3.09101,1.21376 8.67408,2.81801 8.67408,2.81801c0,0 -0.69563,-1.79212 -2.58647,-3.43461c-0.94653,-0.82216 -1.59785,-1.28391 -2.01234,-1.54128l0.38913,0.06656c0,0 11.79206,1.90169 13.95167,7.61256c2.10077,5.54897 -0.40151,11.44948 -0.40151,11.44948c0,0 2.56543,-1.01121 4.08071,-4.17318l0.08311,0.01827z" fill="#e6e7e8"></path></g><g stroke="#000000" stroke-linecap="round" stroke-linejoin="miter"><path d="M269.43295,162.46369c0,0 5.43359,-6.64025 5.73632,-6.95471c0.30273,-0.31395 2.54869,-3.31924 9.02106,-4.34578c0,0 -4.15682,20.17223 -13.83943,24.78706c-0.00054,-0.00117 0.92058,-5.77332 -0.91795,-13.48657zM269.4702,162.62683c-0.1392,-0.6384 -0.56176,-1.76445 -0.56176,-1.76445M269.88678,177.49741c0,0 0.37179,-0.96761 0.46358,-1.54833" fill="#be1e2d"></path><path d="M274.20983,172.77889c0,0 -0.97026,-0.81335 -1.08202,-3.48884c-0.07175,-1.65965 0.59632,-4.68616 0.59632,-4.68616l-0.05447,0.09658c0.42358,-0.53477 0.87041,-1.1596 1.27515,-1.84511c0.68583,-1.15966 1.48831,-2.89873 2.22383,-4.61314l0.11385,-0.23616c0,0 1.94483,-3.10429 5.97591,-3.49713l0.0464,0.02773c-0.84936,3.06657 -2.23465,7.56368 -3.76882,10.63613c-1.72031,3.4476 -3.71214,5.95062 -5.39849,7.66855l0.07235,-0.06245zM272.04531,166.42955c0,0 1.41441,-1.50826 1.67881,-1.82566" fill="#929497"></path></g><g stroke="#000000" stroke-linecap="round" stroke-linejoin="miter"><path d="M216.98002,175.94908c-9.68207,-4.61366 -13.8389,-24.78648 -13.8389,-24.78648c6.47291,1.02713 8.71886,4.03242 9.02106,4.34578c0.30219,0.31388 5.73632,6.9553 5.73632,6.9553c-1.84014,7.71325 -0.91848,13.48539 -0.91848,13.48539zM218.4214,160.86237c0,0 -0.42202,1.12606 -0.56176,1.76445M216.98002,175.94908c0.09232,0.58071 0.46411,1.54833 0.46411,1.54833" fill="#be1e2d"></path><path d="M213.19183,172.84251c-1.68635,-1.71969 -3.6771,-4.22271 -5.39849,-7.66855c-1.53471,-3.07244 -2.91946,-7.56955 -3.76882,-10.63613l0.0464,-0.02773c4.03162,0.39343 5.97591,3.49713 5.97591,3.49713l0.11385,0.23616c0.73552,1.7144 1.538,3.45347 2.22383,4.61314c0.40474,0.68551 0.85157,1.31034 1.27515,1.84511l-0.05393,-0.09658c0,0 0.66807,3.0265 0.59632,4.68616c-0.11175,2.67549 -1.08148,3.48884 -1.08148,3.48884l0.07127,0.06245zM213.60625,164.60447c0.26441,0.3174 1.67881,1.82566 1.67881,1.82566" fill="#929497"></path></g><path d="M239.08449,171.36074v0c0.43063,0.13247 0.68051,0.61895 0.55853,1.08834c-0.1203,0.47056 -0.56391,0.7432 -0.99723,0.61425c-0.02481,-0.00881 -2.53577,-0.75325 -4.99052,0.02767c-0.07558,0.02356 -0.15056,0.03596 -0.2256,0.03596c-0.35075,0 -0.67453,-0.25208 -0.77761,-0.63722c-0.06099,-0.225 -0.03073,-0.45647 0.06207,-0.6508c-0.15164,-0.14487 -0.2952,-0.33215 -0.39446,-0.59011c-0.1166,-0.2992 0.01184,-0.64545 0.28707,-0.77211c0.27254,-0.12307 0.59094,0.01122 0.70801,0.31271c0.0928,0.24034 0.36157,0.30925 0.3648,0.31042c0.07935,0.01997 0.14894,0.05886 0.20886,0.11067c0.07982,-0.01703 0.16025,-0.03707 0.23905,-0.05181c-0.08311,-0.13606 -0.16031,-0.29032 -0.20671,-0.47761c-0.0766,-0.31571 0.09495,-0.63605 0.38369,-0.72147c0.29083,-0.08594 0.58388,0.10604 0.65994,0.41875c0.06099,0.25208 0.31194,0.36452 0.31409,0.36569c0.11708,0.04359 0.20342,0.13195 0.26656,0.23681c1.93299,-0.09782 3.45312,0.35336 3.53946,0.37985z" fill="#231f20" stroke="none" stroke-linecap="butt" stroke-linejoin="miter"></path><path d="M258.39584,170.63634v0c-0.09495,0.52414 -0.38369,0.83867 -0.62006,1.0283c0.05991,0.16549 0.09065,0.34742 0.04855,0.53353c-0.10739,0.47291 -0.53634,0.76506 -0.97995,0.64669c-1.68097,-0.45353 -3.85732,-0.61667 -4.29495,-0.13019c-0.15809,0.17495 -0.3648,0.26207 -0.57527,0.26207c-0.20665,0 -0.4112,-0.08535 -0.56929,-0.25561c-0.3184,-0.34155 -0.3227,-0.90047 -0.00861,-1.24913c0.8456,-0.93753 2.63018,-0.91339 4.05804,-0.70848c0.0696,-0.06532 0.18022,-0.19903 0.19098,-0.38279c0.01567,-0.32452 0.24826,-0.59422 0.56666,-0.55774c0.29675,0.01651 0.52504,0.29215 0.51045,0.61784c-0.01076,0.2049 -0.05716,0.37692 -0.11492,0.53588c0.07068,0.01475 0.13812,0.03008 0.20126,0.04594c0.05668,-0.09423 0.12628,-0.17841 0.22775,-0.2267c0.01567,-0.00946 0.25472,-0.13782 0.30112,-0.3899c0.05991,-0.31858 0.33837,-0.53118 0.63459,-0.46227c0.29197,0.06473 0.48086,0.37274 0.42363,0.69256z" fill="#231f20" stroke="none" stroke-linecap="butt" stroke-linejoin="miter"></path><path d="M239.15738,177.53748c0,0 1.15532,-1.33866 5.82314,-1.45762c4.6668,-0.11485 8.20518,0.57954 8.20518,0.57954c0,0 0.04317,9.37936 -6.28678,9.49539c-6.33527,0.11779 -7.74154,-8.6173 -7.74154,-8.6173z" fill="#58595b" stroke="#231f20" stroke-linecap="round" stroke-linejoin="miter"></path></g><path d="M242.06112,193.93694v0c-0.18183,0.19962 -0.31403,0.55657 -1.08357,0.77974c-0.95298,0.27388 -4.31384,0.61543 -3.84488,-4.40112c0.47057,-5.01772 3.66897,-7.64493 5.24954,-7.0295c1.58004,0.61543 1.1802,2.4653 1.1802,2.4653c0,0 1.37931,-0.48002 1.2541,1.09362c-0.12521,1.57423 -1.81801,1.50532 -2.0069,2.42112c-0.07175,0.34984 -0.30865,0.86634 -0.57258,1.3722c0,0 0.25902,0.38162 0.33837,0.38514c0,0 0.26333,2.06013 -0.51428,2.91348zM240.95596,192.37041c0,0 0.7528,-0.5289 1.28107,-1.73209" fill="#be1e2d" stroke="#000000" stroke-linecap="round" stroke-linejoin="round"></path><path d="M252.15929,194.19901v0c-0.76954,-0.222 -0.90174,-0.57947 -1.08357,-0.77974c-0.77761,-0.85335 -0.51428,-2.91348 -0.51428,-2.91348c0.07988,-0.00352 0.33837,-0.38514 0.33837,-0.38514c-0.26447,-0.50586 -0.50083,-1.02236 -0.57258,-1.3722c-0.18889,-0.91521 -1.88223,-0.8463 -2.0069,-2.42112c-0.12575,-1.57306 1.2541,-1.09362 1.2541,-1.09362c0,0 -0.39984,-1.84987 1.1802,-2.4653c1.58057,-0.61484 4.77951,2.01177 5.24954,7.0295c0.46896,5.01655 -2.8919,4.675 -3.84488,4.40112zM250.89981,190.12123c0.52827,1.20319 1.28053,1.73209 1.28053,1.73209" fill="#be1e2d" stroke="#000000" stroke-linecap="round" stroke-linejoin="round"></path></g><path d="M13.12763,204.83633v-457.74474h457.74474v457.74474z" fill="none" stroke="none" stroke-width="0" stroke-linecap="butt" stroke-linejoin="miter"></path></g></g></svg>