<svg version="1.1" xmlns="http://www.w3.org/2000/svg" xmlns:xlink="http://www.w3.org/1999/xlink" width="457.74474" height="457.74474" viewBox="0,0,457.74474,457.74474"><g transform="translate(-13.12763,252.90841)"><g data-paper-data="{&quot;isPaintingLayer&quot;:true}" fill-rule="nonzero" stroke-miterlimit="10" stroke-dasharray="" stroke-dashoffset="0" style="mix-blend-mode: normal"><path d="M13.12763,204.83633v-457.74474h457.74474v457.74474z" fill="none" stroke="none" stroke-width="0" stroke-linecap="butt" stroke-linejoin="miter"></path><g stroke-width="0.90137"><path d="M243.29627,186.68465v0v0v0v0v0v0v0v0v0v0v0v0v0v0v0v0v0v0v0c1.46685,2.7306 -1.52159,6.81108 -1.7696,7.16924c-0.42793,0.41844 0,0 -0.00722,0.01023c0,0 -2.14761,2.32425 -3.56808,1.53562c-0.60497,-0.33517 -0.87819,-0.92784 -0.89209,-1.70504c-0.26539,-0.08501 -0.63257,-0.26526 -0.79692,-0.65476c-0.27381,-0.64748 1.10515,-1.14732 1.10515,-1.14732v0.00962c0.06316,-0.20016 0.13119,-0.40574 0.21367,-0.61914c0.46589,-1.20827 1.61428,-3.57049 1.61428,-3.57049c0,0 2.61531,-3.79357 4.10081,-1.02796z" fill="#9a8479" stroke="#000000" stroke-linecap="round" stroke-linejoin="round"></path><path d="M259.85414,190.71876v0v0v0v0v0v0v0v0v0v0v0v0v0v0v0v0v0v0v0c0,0 1.37897,0.50158 1.10335,1.14852c-0.16314,0.39311 -0.53212,0.57216 -0.79571,0.65837c-0.0139,0.77359 -0.28651,1.36921 -0.89209,1.70384c-0.9245,0.51187 -2.08499,-0.24414 -2.7856,-0.83621c-0.32982,-0.22249 -0.70001,-0.46429 -1.02809,-0.65356c-0.82759,-0.47812 -2.79643,-3.71879 -2.42022,-5.54019c0.3762,-1.8214 4.35658,0 4.35658,0c0.92637,0.89229 1.92793,2.07343 2.24873,2.90724c0.08127,0.21407 0.15051,0.42145 0.21306,0.62402z" fill="#9a8479" stroke="#000000" stroke-linecap="round" stroke-linejoin="round"></path><path d="M244.8889,193.59946v0v0v0v0v0v0v0v0v0v0v0v0v0v0v0v0v0v0v0c2.60208,0.993 3.62896,1.53442 3.26178,3.61085c-0.27508,1.55734 1.05095,4.97705 1.05095,4.97705c0,0 0.644,0.18513 0.42312,0.70542c-0.22028,0.52698 -1.81779,0.87665 -3.88834,0.76631c-2.06995,-0.11034 -3.69633,-0.08561 -3.93105,-0.58359c-0.23532,-0.49563 0.19622,-0.72654 0.19622,-0.72654c0,0 0.08007,-1.17506 0.08247,-2.4388c0,-1.26308 -0.20043,-4.71841 -0.20043,-4.71841c0,0 0.40387,-2.5847 3.00528,-1.5923z" fill="#9a8479" stroke="#000000" stroke-linecap="butt" stroke-linejoin="miter"></path><path d="M251.60622,194.06067v0v0v0v0v0v0v0v0v0v0v0v0v0v0v0v0v0v0v0c1.9562,-0.89469 3.14616,-1.043 3.64754,0.00241c0,0 0.98051,1.8353 1.47347,3.74713c0.49236,1.91002 0.8451,4.10829 0.8451,4.10829c0,0 0.65369,0.34787 0.64888,0.69152c-0.00361,0.34305 -0.56641,1.01533 -3.53379,1.09974c-2.96625,0.0802 -4.02321,-0.40822 -4.11464,-0.85794c-0.0939,-0.44918 0.25397,-0.48902 0.25397,-0.48902c0,0 0.04097,-0.48775 0,-1.66762c-0.0403,-1.18054 -0.52905,-3.35341 -0.52905,-3.35341c0,0 -0.64768,-2.38694 1.30852,-3.2811z" fill="#9a8479" stroke="#000000" stroke-linecap="butt" stroke-linejoin="miter"></path><path d="M247.13883,184.26576v0v0v0v0v0v0v0v0v0v0v0v0v0v0v0v0v0v0v0c5.40639,-0.41904 7.47093,2.72271 7.46972,2.72211c0.44056,0.81155 0.98652,1.95647 1.21342,3.00194c0.06322,0.28879 0.10112,0.61379 0.11134,0.96226c0,0 -0.03188,1.21068 -0.14924,1.58027c-0.49176,1.54825 -1.29349,3.24307 -3.21179,4.00938c-3.01076,1.20821 -6.21533,1.0599 -9.54509,-0.52758c-1.12373,-0.5342 -1.78945,-1.4446 -2.14881,-2.48097c-0.25637,-0.74646 -0.36591,-1.71894 -0.36591,-1.71894c-0.15773,-1.61702 0.12458,-3.19602 0.27508,-3.88273c0,0 0.94555,-3.24675 6.35127,-3.66572z" fill="#9a8479" stroke="#000000" stroke-linecap="butt" stroke-linejoin="miter"></path><g stroke-linejoin="miter"><path d="M219.16401,175.04415v0v0v0v0v0v0v0v0v0v0v0v0v0v0v0v0v0v0v0c-0.03255,-0.05487 -0.96366,-1.61402 -0.96366,-1.61582c-2.58283,-4.15527 -3.15519,-13.55173 -2.93069,-16.48429l0.01985,-0.14048c0.73376,-12.43027 6.50238,-19.06478 9.90919,-22.57612c7.73271,-7.97538 19.45368,-8.29972 19.45368,-8.29972l0.4153,8.06881c0,0 -0.02226,-2.32064 4.69308,-6.37767c4.71413,-4.05696 11.68548,-3.46436 11.68548,-3.46436l-3.69934,10.1115c0,0 2.18069,-3.14964 3.96774,-4.30057c3.16849,-2.03727 5.84755,-1.16182 5.84755,-1.16182l-0.73911,6.27154c0,0 4.71594,6.12558 8.32438,11.88164c0.77226,1.22812 1.66788,2.47135 2.23543,3.90144c2.0634,5.19593 2.36194,14.45671 0.04759,19.04366c-0.39906,0.81155 -0.83488,1.59951 -1.28627,2.37431c-0.11736,0.19896 -0.23599,0.39672 -0.35515,0.59147c-0.41289,0.6813 -0.84504,1.34989 -1.2989,1.99684c-0.06202,0.08621 -0.11676,0.17784 -0.17878,0.26406c-0.51401,0.72046 -1.05757,1.41505 -1.62217,2.08973c-0.1342,0.16274 -0.27622,0.31953 -0.4141,0.48173c-0.48394,0.55705 -0.98532,1.09847 -1.49993,1.61943c-0.11856,0.12237 -0.23412,0.24595 -0.35395,0.3629c-0.61934,0.60658 -1.26461,1.18475 -1.92907,1.73699c-0.1481,0.12124 -0.29975,0.23759 -0.44905,0.35635c-0.55799,0.44558 -1.13462,0.87184 -1.72449,1.27818c-0.17029,0.11575 -0.33644,0.23752 -0.508,0.35087c-0.72046,0.47451 -1.45783,0.92009 -2.22039,1.33185c-0.13547,0.07418 -0.2805,0.13988 -0.41837,0.21166c-0.65122,0.34005 -1.31694,0.65236 -1.99771,0.94174c-2.88017,1.22271 -6.00708,2.01976 -9.36451,2.2621c-3.83655,0.27676 -7.31019,0.1604 -10.44794,-0.24955c-0.77586,-0.10132 -1.53061,-0.22249 -2.26557,-0.35876c-0.13961,-0.02834 -0.27869,-0.05547 -0.4171,-0.08261c-0.74519,-0.1471 -1.47647,-0.30509 -2.17829,-0.48534c-0.00421,-0.0018 -0.00962,-0.00301 -0.01444,-0.00421c-0.70308,-0.17724 -1.37897,-0.37741 -2.03928,-0.59027c-0.11555,-0.03736 -0.23418,-0.07418 -0.34914,-0.11154c-0.63438,-0.20678 -1.25258,-0.42927 -1.84847,-0.66559c-0.10473,-0.03923 -0.20585,-0.08501 -0.30997,-0.12605c-0.58806,-0.23692 -1.16169,-0.48414 -1.71179,-0.74579c-0.02112,-0.01263 -0.04458,-0.01992 -0.06503,-0.03134c-0.5634,-0.27074 -1.10147,-0.55291 -1.62458,-0.84169c-0.09751,-0.05427 -0.19442,-0.10727 -0.28952,-0.16154c-0.50319,-0.28638 -0.99073,-0.57884 -1.45536,-0.88026c-0.07104,-0.04585 -0.13848,-0.0929 -0.20892,-0.13808c-0.44116,-0.29179 -0.86789,-0.58967 -1.27604,-0.89356c-0.0421,-0.02834 -0.08849,-0.05908 -0.12879,-0.09103c-0.42553,-0.32013 -0.82759,-0.64754 -1.21522,-0.9773c-0.07525,-0.06329 -0.1493,-0.12725 -0.22155,-0.19054c-0.37794,-0.32982 -0.74151,-0.65957 -1.08343,-0.99842c-0.0391,-0.03676 -0.07459,-0.07599 -0.11315,-0.11335c-0.322,-0.32133 -0.62776,-0.64514 -0.91668,-0.96888c-0.04037,-0.04705 -0.08608,-0.09283 -0.12698,-0.13868c-0.2962,-0.34065 -0.936,-1.14852 -0.98539,-1.21309c-0.25757,-0.34065 -0.50319,-0.6813 -0.72527,-1.02014c-0.01383,-0.02105 -0.02707,-0.04217 -0.0397,-0.06329c-0.21313,-0.32615 -0.40695,-0.64694 -0.58806,-0.96707z" fill="#9a8479" stroke="#000000" stroke-linecap="butt"></path><path d="M264.6845,156.90968v0v0v0v0v0v0v0v0v0v0v0v0v0v0v0v0v0v0v0c0,0 7.01158,7.94404 4.84533,16.18468c-2.16566,8.23817 -15.10787,11.72846 -25.05201,11.10203c-13.14565,-0.829 -19.23995,-8.67412 -17.0767,-16.16109c2.16626,-7.48703 19.56984,-10.98694 19.56984,-10.98694l-2.85785,5.37919c0,0 2.25114,-0.34847 4.06946,-1.39033c1.81779,-1.03999 3.81129,-2.42731 3.81129,-2.42731l-4.16396,5.91158c0,0 5.49962,-0.05908 10.26187,-1.9691c4.76232,-1.90768 6.59274,-5.64271 6.59274,-5.64271z" fill="#e6e7e8" stroke="#000000" stroke-linecap="butt"></path><g stroke="#000000"><path d="M273.65709,152.61453c0,0 11.28702,-6.35294 13.86618,-0.95083c2.58036,5.40218 -2.03506,11.73273 -11.66557,17.46045c0,0 0.21306,-9.40487 -2.20061,-16.50962v0v0v0v0v0v0v0v0v0v0v0v0v0v0v0v0v0v0zM273.65709,152.61453c-0.20224,-0.8314 -0.86789,-2.42129 -0.86789,-2.42129M275.60728,170.58859l0.12103,-1.52052" fill="#9a8479" stroke-linecap="round"></path><path d="M275.72832,169.06687c0.06256,-1.7418 0.06075,-4.60987 -0.33169,-8.19119c-0.2257,-2.08432 -0.66211,-4.23427 -1.1099,-6.09129l0.0012,0.00241c6.61132,-1.68633 12.49563,4.43684 12.49563,4.43684h0.00241c-3.30449,5.49681 -11.00472,9.69125 -11.00472,9.69125l-0.05293,0.15198v0v0v0v0v0v0v0v0v0v0v0v0v0v0v0v0v0v0z" fill="#ee4036" stroke-linecap="butt"></path></g><g stroke="#000000"><path d="M220.68319,173.26739c-9.37473,-3.7381 -14.43312,-8.79295 -13.01626,-14.10283c1.41753,-5.31042 12.34813,-1.25646 12.34813,-1.25646c-1.00156,6.83347 0.66813,15.35929 0.66813,15.35929v0v0v0v0v0v0v0v0v0v0v0v0v0v0v0v0v0v0zM220.39728,155.57242c0,0 -0.33584,1.54765 -0.38162,2.33568M220.78792,173.19501l0.34673,1.3668" fill="#9a8479" stroke-linecap="round"></path><path d="M220.71815,173.06542c0,0 -7.43537,-2.63897 -11.20936,-7.13436l0.0018,-0.0006c0,0 4.21034,-6.47164 10.29201,-5.94894l0.0006,-0.0018c-0.10112,1.75751 -0.14563,3.78088 -0.01504,5.71141c0.22028,3.31966 0.67054,5.92909 1.00036,7.50387l-0.07038,-0.12959v0v0v0v0v0v0v0v0v0v0v0v0v0v0v0v0v0v0z" fill="#ee4036" stroke-linecap="butt"></path></g><path d="M257.02457,169.87355c-0.43635,0 -0.81737,-0.31652 -0.89022,-0.7621c-0.0788,-0.49316 0.25644,-0.95738 0.7488,-1.03698c0.44785,-0.06997 4.41679,-0.69092 5.87943,-0.50887c0.49476,0.06269 0.84631,0.51488 0.78729,1.00804c-0.06262,0.49684 -0.52063,0.84169 -1.00818,0.78863c-0.91976,-0.11275 -3.78001,0.24421 -5.37384,0.49804c-0.04819,0.00962 -0.09631,0.01323 -0.14329,0.01323v0v0v0v0v0v0v0v0v0v0v0v0v0v0v0v0v0v0v0z" fill="#231f20" stroke="none" stroke-linecap="butt"></path><path d="M242.39402,170.06649c-0.05661,0 -0.11375,-0.00662 -0.17276,-0.01631c-2.08439,-0.40394 -5.75004,0.00728 -5.78613,0.01089c-0.48695,0.05427 -0.94141,-0.29787 -0.99915,-0.79404c-0.05661,-0.49563 0.29854,-0.94415 0.79451,-1.00082c0.16254,-0.01631 3.97563,-0.44497 6.3339,0.01083c0.48875,0.09403 0.81015,0.56855 0.71505,1.06171c-0.08367,0.42746 -0.46228,0.72774 -0.8854,0.72774v0v0v0v0v0v0v0v0v0v0v0v0v0v0v0v0v0v0v0z" fill="#231f20" stroke="none" stroke-linecap="butt"></path><path d="M241.28172,174.56362c0,0 1.94838,-0.21761 7.40282,-0.21761c5.45391,0 7.40289,-0.9104 7.40289,-0.9104c0,0 1.1641,8.40218 -7.19344,8.40218c-8.35807,0 -7.61228,-7.27417 -7.61228,-7.27417v0v0v0v0v0v0v0v0v0v0v0v0v0v0v0v0v0v0z" fill="#6d6e70" stroke="#231f20" stroke-linecap="round"></path></g></g><path d="M13.12763,204.83633v-457.74474h457.74474v457.74474z" fill="none" stroke="none" stroke-width="0" stroke-linecap="butt" stroke-linejoin="miter"></path></g></g></svg>