<svg version="1.1" xmlns="http://www.w3.org/2000/svg" xmlns:xlink="http://www.w3.org/1999/xlink" width="457.74474" height="459.13219" viewBox="0,0,457.74474,459.13219"><g transform="translate(-13.12763,252.90841)"><g data-paper-data="{&quot;isPaintingLayer&quot;:true}" fill-rule="nonzero" stroke-miterlimit="10" stroke-dasharray="" stroke-dashoffset="0" style="mix-blend-mode: normal"><path d="M13.12763,204.83633v-457.74474h457.74474v457.74474z" fill="none" stroke="none" stroke-width="0" stroke-linecap="butt" stroke-linejoin="miter"></path><g><g stroke-width="0.9025"><path d="M251.58607,180.91732c-0.28858,1.91769 -1.05743,6.91279 -0.93383,7.89939l-0.1797,-0.40278c0.36874,1.04204 0.74147,2.52364 0.62327,4.06527c-0.22981,2.99185 -1.87232,4.59498 -3.61778,5.45065l-0.01932,0.09755l-1.49766,5.97304c0.02879,-0.00067 0.28325,0.01465 2.07408,0.18703c2.26977,0.21775 1.21301,1.58507 1.21301,1.58507l-4.23091,-0.07483l-0.21642,-0.00266l-8.54937,-0.15299c-0.10488,-0.34801 -0.02139,-1.42409 0.52039,-4.14609c0.20901,-1.06942 0.40278,-1.98919 0.57175,-2.74131l0.00133,-0.0054c-2.8883,-2.24505 -2.54162,-5.71917 -1.66123,-8.17731c0.5611,-1.57242 3.76403,-13.44159 3.76403,-13.44159c0,0 1.39205,-4.5582 7.15326,-2.97179c0,0 6.63168,1.10347 4.98577,6.85609c0,0.00266 -0.00067,0.00266 -0.00067,0.00266zM243.14957,198.71342c0,0 1.69802,0.27385 4.32779,-0.78158M250.65224,188.8187c-0.15099,-0.68995 -1.0447,-1.90637 -1.0447,-1.90637M237.86189,196.54246c0,0 -0.19303,0.60188 -0.51698,2.10879" fill="#f05a28" stroke="#000000" stroke-linecap="round" stroke-linejoin="round"></path><path d="M245.20426,205.62088c-0.00533,0 -0.01066,0 -0.01399,0c-0.18503,-0.00866 -0.32803,-0.16431 -0.31996,-0.34801c0.00733,-0.16564 -0.03678,-0.29258 -0.13767,-0.40078c-0.42476,-0.45022 -1.71201,-0.47021 -2.48145,-0.48227c-0.23114,-0.00333 -0.4369,-0.00733 -0.59855,-0.01732c-0.10088,-0.0074 -0.19369,-0.06017 -0.25113,-0.14299c-0.05743,-0.08349 -0.07483,-0.18836 -0.04611,-0.28591c0.27585,-0.93109 0.54304,-1.87299 0.81023,-2.81481l0.33802,-1.18829c0.05077,-0.17771 0.23381,-0.28325 0.41285,-0.22915c0.17763,0.05011 0.27985,0.23581 0.22974,0.41285l-0.33802,1.18629c-0.22774,0.80423 -0.45622,1.60979 -0.68995,2.40736c0.04604,0.00067 0.09415,0.00133 0.14292,0.00266c0.98727,0.01406 2.33927,0.03538 2.9578,0.69136c0.22641,0.23914 0.33395,0.53904 0.31996,0.88572c-0.01007,0.18304 -0.15765,0.32329 -0.33469,0.32329v0z" fill="#000000" stroke="none" stroke-linecap="butt" stroke-linejoin="miter"></path></g><g stroke-linejoin="miter"><path d="M217.88017,135.04567c0,0 0.62127,-2.54629 5.90761,-7.95823c5.2836,-5.4092 11.00344,-7.2722 14.79685,-8.82722c3.79341,-1.5551 6.34044,-9.32489 6.34044,-9.32489c0,0 3.49277,4.34444 7.0825,8.29484c3.66315,4.02856 12.19313,7.55944 21.33365,16.7594c1.09081,1.10154 2.01798,2.25445 2.79749,3.43741l0.15765,0.13826c2.04196,1.77077 9.28211,8.83529 8.35361,19.12072c-0.70935,7.83596 -4.27228,10.31215 -5.99968,10.97746l-0.01406,0.05743c0.88979,-1.76278 1.41943,-3.6331 1.66997,-5.53214c0.82562,-6.28027 -2.55835,-10.36093 -4.72791,-15.8229c-2.81281,-7.08324 -10.50718,-11.06835 -20.46999,-10.86992c-18.96108,0.37473 -23.13721,11.0349 -23.13721,11.0349l-0.01406,0.13826c3.51757,6.53273 4.92234,21.02309 -2.28043,25.35954c-7.75847,4.66448 -19.24625,3.03663 -23.72037,-14.98662c-4.09532,-16.49487 8.16732,-21.69173 11.77436,-21.64895l0.14958,-0.34735zM276.13805,137.42698c0,0 4.97504,7.90412 3.35585,17.67183M217.72992,135.39235c3.48811,0.09415 5.82605,2.59106 5.82605,2.59106M231.95636,146.66771c-0.58715,-0.91577 -0.99659,-1.66997 -0.99659,-1.66997" fill="#f05a28" stroke="#000000" stroke-width="0.9025" stroke-linecap="round"></path><path d="M279.72571,165.0389c0,0 1.56975,-2.84819 2.62918,-8.06843c1.05802,-5.2235 -0.35341,-12.32606 -0.35341,-12.32606c1.75345,3.18021 3.0814,7.26154 2.65257,12.04155c-0.68736,7.63494 -4.23098,10.23866 -6.00109,10.97746l1.07275,-2.62452z" fill="#404041" stroke="#000000" stroke-width="0.9025" stroke-linecap="butt"></path><g stroke="#231f20" stroke-width="0.9025"><path d="M206.36434,158.64776v0c-0.80083,-3.09273 -1.49759,-7.91545 -0.855,-11.66542c0.65998,-3.86957 2.93575,-6.37715 5.44066,-6.98502c4.68987,-1.14292 10.35893,5.61763 12.66675,15.09616c2.17222,8.93484 0.58848,17.09409 -3.52756,18.96241c0,0 -1.34793,0.17164 -4.06793,-1.32196c-2.718,-1.49152 -5.06793,-4.0532 -6.02648,-5.70977c-0.96121,-1.65457 -2.82813,-5.27768 -3.63044,-8.3764z" fill="#404041" stroke-linecap="butt"></path><path d="M209.27743,150.76569c1.80415,-0.77285 4.86617,2.33527 6.84003,6.94491c1.97179,4.60638 2.11005,8.97155 0.3079,9.74373c-1.80556,0.77152 -4.86617,-2.33794 -6.8387,-6.94624c-1.9752,-4.60771 -2.11212,-8.96955 -0.30923,-9.7424zM217.2122,166.70088c-7.42918,-4.70859 -7.34628,-16.05138 -7.34628,-16.05138" fill="#929497" stroke-linecap="round"></path></g><path d="M229.05806,172.45476v0l-0.04012,-0.05144c0.22182,-0.1202 0.4409,-0.2458 0.65731,-0.3754c7.2121,-4.34178 5.79267,-18.86552 2.26711,-25.38293l0.02872,-0.11487c0,0 4.17614,-10.6615 23.14121,-11.03556c9.96281,-0.19843 17.65585,3.78668 20.46932,10.86992c2.16889,5.46264 5.5542,9.5433 4.72724,15.8229c-0.863,6.53539 -5.03788,12.77828 -15.79485,15.32324c-10.75705,2.55369 -10.32422,1.1857 -13.92993,2.73473c-3.60498,1.55769 -3.79134,2.24098 -3.79134,2.24098c0,0 1.15491,-2.26037 -3.46546,-3.41528c-6.97629,-1.73806 -13.40022,-6.02248 -14.26921,-6.61629z" fill="#e6e7e8" stroke="#000000" stroke-width="0.9025" stroke-linecap="round"></path><path d="M259.0587,167.46766c-10.52457,-0.2398 -11.62471,-10.69155 -11.62471,-10.69155c0,0 6.38914,-1.99452 12.65135,-2.38331c6.26495,-0.38539 10.81848,1.65124 10.81848,1.65124c0,0 -0.73547,11.67748 -11.84512,11.42361z" fill="#ffffff" stroke="#231f20" stroke-width="0.98418" stroke-linecap="round"></path><g stroke="none" stroke-width="0.9025" stroke-linecap="butt"><path d="M269.37418,146.42191c1.73273,-0.27259 3.35718,0.89305 3.62703,2.60372c0.2686,1.71201 -0.91843,3.32047 -2.64783,3.59439c-1.73739,0.27452 -3.35784,-0.89245 -3.6277,-2.60313c-0.26919,-1.71201 0.91577,-3.3218 2.6485,-3.59498z" fill="#ffffff"></path><path d="M269.84639,153.32737c-1.89704,0 -3.48744,-1.3486 -3.78002,-3.20693c-0.15765,-1.00599 0.08882,-2.01391 0.69536,-2.83753c0.60321,-0.82096 1.49426,-1.36133 2.50891,-1.51965c2.13751,-0.32929 4.06593,1.10347 4.39056,3.15882c0.32529,2.07208 -1.11146,4.02656 -3.20293,4.35718c-0.20768,0.03345 -0.41011,0.04811 -0.61187,0.04811v0zM269.87851,147.05044c-0.1316,0 -0.26452,0.01073 -0.40012,0.03205c-0.66264,0.10421 -1.2438,0.45763 -1.64125,0.99334c-0.39412,0.53438 -0.55444,1.18496 -0.45222,1.8362c0.20975,1.33528 1.4702,2.26378 2.86225,2.04736c1.36533,-0.21575 2.30456,-1.48627 2.09347,-2.82887c-0.1897,-1.20501 -1.22574,-2.08008 -2.46213,-2.08008v0z" fill="#231f20"></path><path d="M269.86445,147.77917c0.48094,0 0.91644,0.1951 1.23173,0.5104c0.3153,0.31522 0.51032,0.75079 0.51032,1.23173c0,0.48094 -0.19503,0.91644 -0.51032,1.23173c-0.3153,0.3153 -0.75079,0.51032 -1.23173,0.51032c-0.48094,0 -0.91644,-0.19503 -1.23173,-0.51032c-0.3153,-0.3153 -0.51032,-0.75079 -0.51032,-1.23173c0,-0.48094 0.19503,-0.91651 0.51032,-1.23173c0.3153,-0.3153 0.75079,-0.5104 1.23173,-0.5104z" fill="#231f20"></path></g><g stroke="none" stroke-width="0.9025" stroke-linecap="butt"><path d="M243.8917,147.23747c1.73273,-0.27252 3.35725,0.89312 3.62711,2.6038c0.26852,1.71201 -0.91851,3.32047 -2.64783,3.59432c-1.73673,0.27452 -3.35792,-0.89238 -3.62711,-2.60306c-0.27052,-1.71201 0.9151,-3.32187 2.64783,-3.59506z" fill="#ffffff"></path><path d="M244.36398,154.14234c-1.89704,0 -3.48752,-1.34867 -3.78076,-3.20693c-0.15765,-1.00599 0.08889,-2.01398 0.69536,-2.8376c0.60388,-0.82088 1.49492,-1.36133 2.50891,-1.51957c2.13818,-0.32936 4.06593,1.10347 4.39122,3.15882c0.32536,2.07201 -1.11146,4.02648 -3.20286,4.35718c-0.20776,0.03405 -0.41085,0.04811 -0.61187,0.04811v0zM244.39536,147.86607c-0.1316,0 -0.26452,0.01066 -0.39945,0.03205c-0.66264,0.10421 -1.24446,0.45755 -1.64125,0.99326c-0.39405,0.53438 -0.55436,1.18496 -0.45148,1.83628c0.20968,1.33528 1.4702,2.26378 2.86225,2.04729c1.36466,-0.21575 2.30448,-1.48619 2.09273,-2.8288c-0.1897,-1.20509 -1.2264,-2.08008 -2.4628,-2.08008v0z" fill="#231f20"></path><path d="M244.3813,148.5948c0.48094,0 0.91651,0.19503 1.23173,0.51032c0.3153,0.3153 0.5104,0.75079 0.5104,1.23173c0,0.48094 -0.1951,0.91644 -0.5104,1.23173c-0.31522,0.3153 -0.75079,0.51032 -1.23173,0.51032c-0.48094,0 -0.91644,-0.19503 -1.23173,-0.51032c-0.3153,-0.3153 -0.51032,-0.75079 -0.51032,-1.23173c0,-0.48094 0.19503,-0.91644 0.51032,-1.23173c0.3153,-0.3153 0.75079,-0.51032 1.23173,-0.51032z" fill="#231f20"></path></g></g><path d="M235.73645,180.79638c0,0 -0.0675,-1.23706 0.00133,-1.64118c0.10421,-0.61387 0.73606,-2.10946 1.13618,-2.21567c1.65191,0.59981 1.21375,0.44216 3.04395,1.09747c0.03412,-0.67463 0.09888,-1.35001 0.21508,-1.93449c0.50633,-2.577 2.00258,-4.82605 3.60572,-4.5522c1.60513,0.27385 2.7026,4.22425 0.78158,9.21735c-1.92176,4.99177 -3.74938,5.3491 -5.28501,5.04654c-1.88105,-0.3734 -3.49351,-2.4047 -3.49884,-5.01782v0zM240.39353,181.73554l-0.47561,-3.6992" fill="#f05a28" stroke="#000000" stroke-width="0.9025" stroke-linecap="round" stroke-linejoin="miter"></path><path d="M251.2761,179.96942c0,0 0.35608,-0.14359 1.71341,-0.60447c1.35793,-0.45962 2.49951,-0.3768 2.49951,-0.3768c0.05743,-0.67064 0.14492,-1.34261 0.27925,-1.92443c0.59314,-2.56094 2.15949,-4.75929 3.75596,-4.43326c1.59447,0.32729 2.56102,4.3104 0.47628,9.23666c-2.08341,4.92634 -3.92301,5.22291 -5.44466,4.87024c-1.87165,-0.43424 -3.41535,-2.51764 -3.33453,-5.12936l0.05477,-1.63859zM255.4062,182.32875c0,0 0.08349,-2.79749 0.08349,-3.3406" fill="#f05a28" stroke="#000000" stroke-width="0.9025" stroke-linecap="round" stroke-linejoin="miter"></path></g><path d="M13.12763,204.83633v-457.74474h457.74474v457.74474z" fill="none" stroke="none" stroke-width="0" stroke-linecap="butt" stroke-linejoin="miter"></path></g></g></svg>