<?xml version="1.0" encoding="UTF-8"?>
<svg id="Layer_2" data-name="Layer 2" xmlns="http://www.w3.org/2000/svg" viewBox="0 0 63 98.66">
  <defs>
    <style>
      .cls-1 {
        fill: #ff813f;
      }
    </style>
  </defs>
  <g id="Layer_1-2" data-name="Layer 1">
    <path class="cls-1" d="M.36,62.39c.15-8.95,13.33-35.61,22.3-35.39,2.39,0,4.33,1.94,4.33,4.33v-.16c0,1.52.75,2.85,1.9,3.66l.09.06.07.05c.19.12.39.23.61.33l.09.04.06.03c.23.09.47.17.72.22h.06s.02.02.02.02c.28.05.57.09.86.09h.02s.08,0,.08,0h.18s.18-.02.18-.02l.18-.02.17-.02.17-.03.17-.04.17-.04.17-.05.16-.06.16-.06.15-.07.15-.07.15-.08.15-.09.14-.09.14-.1.13-.1.13-.11.13-.11.12-.12.12-.12.11-.13.11-.13.1-.13.1-.14.09-.14.09-.15.08-.15.08-.15.07-.16.06-.16.06-.16.05-.17.04-.17.04-.17.03-.17.03-.17.02-.18v-.18s.01-.18.01-.18V4.3s.01-.17.01-.17l.02-.17.02-.17.03-.17.04-.16.04-.16.04-.16.05-.16.06-.15.06-.15.07-.15.07-.15.08-.14.08-.14.09-.14.09-.13.1-.13.1-.13.11-.12.11-.12.12-.11.12-.11.12-.11.13-.1.13-.1.13-.09.14-.09.14-.08.15-.08.15-.07.15-.06.15-.06.16-.06.16-.05.16-.04.17-.04.17-.03.17-.02.17-.02h.19s.19-.02.19-.02h.39s.19.02.19.02l.19.02.19.02.19.03.19.04.19.04.18.05.18.05.18.06.18.06.17.07.17.08.17.08.17.09.16.09.16.1.16.1.15.11.15.11.15.12.14.12.14.13.13.13.13.13.13.14.12.14.12.15.11.15.11.15.11.16.1.16.09.17.09.17.08.17.08.18.07.18.4,1.05.39,1.04.39,1.03.38,1.02.38,1.02.37,1.01.37,1,.36.99.36.99.35.98.35.97.34.96.34.96.33.95.33.94.32.94.32.93.31.92.31.91.3.9.3.9.29.89.29.88.28.88.28.87.27.86.27.86.26.85.26.84.25.83.25.83.24.82.24.81.23.8.23.8.22.79.22.78.21.77.21.77.2.76.22.84.22.83.21.82.21.82.2.81.2.8.19.79.19.78.18.77.18.77.17.76.17.75.16.74.16.73.15.73.15.72.14.71.13.7.13.7.13.68.12.68.11.67.11.66.11.65.1.65.09.64.09.63.09.62.08.61.07.61.07.6v.07s.01,0,.01,0c.02.15.04.3.07.46l.09.63.04.38c.02.18.04.35.05.53l.04.36.04.59c.01.18.02.35.03.53v.17s.04,1.3.04,1.3l-.03,1.3v.17c-.02.18-.03.35-.04.53l-.04.58-.04.36c-.02.18-.03.36-.05.53l-.04.38-.09.64c-.02.15-.04.29-.06.44l-.03.18-.2,1.06c-.03.13-.05.26-.08.4l-.23,1-.04.15c-.04.18-.09.35-.14.53l-.14.53-.09.29c-.06.22-.13.43-.2.65l-.08.24-.14.41c-.08.22-.15.44-.23.65l-.04.1-.22.54c-.19.47-.39.93-.59,1.39l-.14.32-.02.05c-.13.27-.27.54-.4.82l-.12.23-.07.13c-.15.28-.3.57-.46.85l-.05.1-.11.18c-5.44,9.43-15.62,15.78-27.29,15.78-17.4,0-31.5-14.1-31.5-31.5,0-1.62.12-3.22.36-4.78Z"/>
  </g>
</svg>